<svg xmlns="http://www.w3.org/2000/svg" width="32" height="32" fill="none" viewBox="0 0 32 32">
    <path fill-rule="evenodd" stroke="#2C2C2E" stroke-linecap="round" stroke-linejoin="round" stroke-width="1.5" d="M3.336 16c-.004 1.64-.077 3.876.937 4.712.946.78 1.612.579 3.34.705 1.728.128 5.376 5.21 8.189 3.602 1.45-1.14 1.558-3.532 1.558-9.019 0-5.486-.108-7.878-1.558-9.02-2.813-1.608-6.46 3.475-8.19 3.603-1.727.127-2.393-.074-3.339.705-1.014.836-.94 3.073-.937 4.712z" clip-rule="evenodd"/>
    <path stroke="#2C2C2E" stroke-linecap="round" stroke-linejoin="round" stroke-width="1.5" d="M26.112 7.872c3.4 4.895 3.412 11.351 0 16.255M22.775 11.086c1.748 3.054 1.748 6.784 0 9.829"/>
</svg>
